#!OML:ASF H:\Dans Jumps\Project 1\Capture day 1\Session 1\subject.ASF
:FULLY-SPECIFIED
:DEGREES
230
root 0.54485 17.3969 -14.1787 8.22642 -1.10732 -2.01423
lowerback 1.77932 -0.370157 0.41485
upperback 5.49327 -0.577709 2.04578
thorax 4.68793 -0.321912 1.86902
lowerneck -14.7848 0.336766 -2.1244
upperneck 22.9082 1.14072 -0.536936
head 9.68706 0.280227 0.313915
rclavicle -1.88845e-015 -5.96354e-015
rhumerus -47.6345 -21.3855 -64.7851
rradius 25.1289
rwrist 30.8137
rhand -18.2291 -25.697
rfingers 7.12502
rthumb 8.04918 -55.5238
lclavicle -1.88845e-015 -5.96354e-015
lhumerus -41.9873 4.56087 82.8314
lradius 17.7782
lwrist 9.55869
lhand -26.1474 -4.33093
lfingers 7.12502
lthumb 0.403369 25.6484
rfemur -19.6235 -1.96471 20.4009
rtibia 27.1965
rfoot -15.5503 -3.32264
rtoes 8.17414
lfemur -19.3234 6.19977 -17.9365
ltibia 26.848
lfoot -13.9734 5.30939
ltoes -4.46895
231
root 0.545172 17.393 -14.1818 8.31467 -1.13471 -2.00203
lowerback 1.8448 -0.362296 0.404829
upperback 5.53461 -0.56668 2.03996
thorax 4.69387 -0.316919 1.86931
lowerneck -14.8157 0.344991 -2.11963
upperneck 22.8026 1.15327 -0.549035
head 9.6556 0.286253 0.310298
rclavicle -1.88845e-015 1.98785e-015
rhumerus -47.8324 -21.3577 -64.6939
rradius 25.0883
rwrist 30.8835
rhand -18.2604 -25.7356
rfingers 7.12502
rthumb 8.01901 -55.5634
lclavicle -1.88845e-015 1.98785e-015
lhumerus -42.2318 4.57454 82.7825
lradius 17.6977
lwrist 9.47985
lhand -26.0556 -4.22758
lfingers 7.12502
lthumb 0.492045 25.7516
rfemur -19.8193 -1.95791 20.3872
rtibia 27.3636
rfoot -15.6641 -3.34785
rtoes 8.15776
lfemur -19.5044 6.22478 -17.9603
ltibia 27.0019
lfoot -14.1234 5.5248
ltoes -5.09662
232
root 0.545382 17.3885 -14.1841 8.40131 -1.16202 -1.99495
lowerback 1.91141 -0.354534 0.397569
upperback 5.57236 -0.555813 2.03638
thorax 4.69543 -0.311921 1.87034
lowerneck -14.84 0.353723 -2.11749
upperneck 22.6951 1.16632 -0.558634
head 9.62217 0.29262 0.308026
rclavicle 9.64106e-015 5.1684e-015
rhumerus -48.0261 -21.3165 -64.6117
rradius 25.0533
rwrist 30.9559
rhand -18.2864 -25.8026
rfingers 7.12502
rthumb 7.99393 -55.6314
lclavicle 9.64106e-015 5.1684e-015
lhumerus -42.4758 4.59489 82.7281
lradius 17.6142
lwrist 9.37579
lhand -25.9752 -4.0958
lfingers 7.12502
lthumb 0.569742 25.8832
rfemur -20.0159 -1.94724 20.3794
rtibia 27.5407
rfoot -15.7892 -3.39701
rtoes 8.0914
lfemur -19.6885 6.25507 -17.9778
ltibia 27.1721
lfoot -14.3031 5.79071
ltoes -5.87847
233
root 0.545537 17.3834 -14.1859 8.48695 -1.18971 -1.99211
lowerback 1.98066 -0.346837 0.391986
upperback 5.6055 -0.545027 2.03561
thorax 4.69066 -0.306927 1.87333
lowerneck -14.8544 0.364452 -2.11098
upperneck 22.5859 1.18245 -0.575308
head 9.58642 0.300048 0.302916
rclavicle -3.77691e-015 -1.86858e-014
rhumerus -48.2118 -21.2637 -64.5366
rradius 25.0191
rwrist 31.0244
rhand -18.3371 -25.8854
rfingers 7.12502
rthumb 7.945 -55.7161
lclavicle -3.77691e-015 -1.86858e-014
lhumerus -42.7149 4.62633 82.6669
lradius 17.5247
lwrist 9.25081
lhand -25.8976 -3.94968
lfingers 7.12502
lthumb 0.644643 26.0291
rfemur -20.2165 -1.93546 20.3769
rtibia 27.7298
rfoot -15.9233 -3.46879
rtoes 7.96577
lfemur -19.8769 6.29165 -17.9906
ltibia 27.3601
lfoot -14.5094 6.09804
ltoes -6.75989
234
root 0.545637 17.3776 -14.1869 8.56912 -1.21654 -1.99121
lowerback 2.05536 -0.338921 0.387388
upperback 5.6369 -0.533862 2.03543
thorax 4.68098 -0.301697 1.87639
lowerneck -14.8772 0.376668 -2.09792
upperneck 22.4828 1.20091 -0.598529
head 9.55452 0.308278 0.294781
rclavicle -6.55989e-015 5.56597e-015
rhumerus -48.3878 -21.2094 -64.4683
rradius 24.9878
rwrist 31.0925
rhand -18.3978 -25.9699
rfingers 7.12502
rthumb 7.88643 -55.8028
lclavicle -6.55989e-015 5.56597e-015
lhumerus -42.9424 4.66427 82.5983
lradius 17.4335
lwrist 9.12042
lhand -25.8026 -3.7947
lfingers 7.12502
lthumb 0.73638 26.1838
rfemur -20.4186 -1.92409 20.3774
rtibia 27.9325
rfoot -16.0669 -3.55713
rtoes 7.77856
lfemur -20.0667 6.33421 -18.0011
ltibia 27.5657
lfoot -14.7416 6.42461
ltoes -7.67928
235
root 0.545743 17.3714 -14.1872 8.64805 -1.24164 -1.99013
lowerback 2.13142 -0.331027 0.382977
upperback 5.66741 -0.522702 2.03555
thorax 4.6696 -0.29646 1.87964
lowerneck -14.9048 0.389385 -2.08283
upperneck 22.3839 1.22027 -0.623996
head 9.5251 0.316783 0.285678
rclavicle -1.19271e-015 1.19271e-015
rhumerus -48.5508 -21.1642 -64.3993
rradius 24.953
rwrist 31.1561
rhand -18.4659 -26.0364
rfingers 7.12502
rthumb 7.82066 -55.8718
lclavicle -1.19271e-015 1.19271e-015
lhumerus -43.154 4.70046 82.5295
lradius 17.3334
lwrist 8.98211
lhand -25.721 -3.65603
lfingers 7.12502
lthumb 0.815171 26.3222
rfemur -20.6218 -1.91441 20.3783
rtibia 28.1489
rfoot -16.2201 -3.65055
rtoes 7.55485
lfemur -20.2553 6.38219 -18.012
ltibia 27.7852
lfoot -14.9954 6.74505
ltoes -8.56158
236
root 0.545805 17.3647 -14.1867 8.72502 -1.26348 -1.98518
lowerback 2.20984 -0.323738 0.374127
upperback 5.69593 -0.512243 2.03568
thorax 4.65486 -0.291748 1.88536
lowerneck -14.9383 0.401803 -2.0667
upperneck 22.292 1.23981 -0.65201
head 9.49928 0.325074 0.275595
rclavicle 1.09332e-015 -2.78299e-015
rhumerus -48.6996 -21.1335 -64.3237
rradius 24.913
rwrist 31.216
rhand -18.5242 -26.0805
rfingers 7.12502
rthumb 7.76443 -55.918
lclavicle 1.09332e-015 -2.78299e-015
lhumerus -43.3469 4.74195 82.4554
lradius 17.2214
lwrist 8.83201
lhand -25.6299 -3.5273
lfingers 7.12502
lthumb 0.903219 26.4505
rfemur -20.8262 -1.90189 20.3748
rtibia 28.377
rfoot -16.3835 -3.73872
rtoes 7.34523
lfemur -20.4433 6.43249 -18.0273
ltibia 28.014
lfoot -15.2626 7.03849
ltoes -9.35289
237
root 0.545823 17.3578 -14.1854 8.79845 -1.28147 -1.97481
lowerback 2.29105 -0.317078 0.360015
upperback 5.72187 -0.502464 2.0349
thorax 4.63589 -0.287557 1.89306
lowerneck -14.973 0.412792 -2.05496
upperneck 22.202 1.25735 -0.675349
head 9.47434 0.332577 0.267634
rclavicle -1.19271e-015 1.19271e-014
rhumerus -48.8371 -21.1179 -64.2393
rradius 24.8641
rwrist 31.2784
rhand -18.5773 -26.0971
rfingers 7.12502
rthumb 7.71313 -55.9365
lclavicle -1.19271e-015 1.19271e-014
lhumerus -43.5273 4.78144 82.3794
lradius 17.1035
lwrist 8.67032
lhand -25.5403 -3.41295
lfingers 7.12502
lthumb 0.989696 26.5645
rfemur -21.0271 -1.8856 20.3649
rtibia 28.614
rfoot -16.5563 -3.81631
rtoes 7.16226
lfemur -20.6257 6.48172 -18.0485
ltibia 28.2467
lfoot -15.54 7.29739
ltoes -10.0418
238
root 0.545742 17.3508 -14.1833 8.86957 -1.29348 -1.96123
lowerback 2.37183 -0.311699 0.342561
upperback 5.74571 -0.494355 2.03407
thorax 4.61505 -0.284325 1.90254
lowerneck -15.0071 0.42134 -2.04855
upperneck 22.1146 1.2715 -0.69318
head 9.45019 0.338653 0.26206
rclavicle 9.93923e-016 -1.27222e-014
rhumerus -48.9624 -21.1192 -64.1464
rradius 24.8091
rwrist 31.3436
rhand -18.6079 -26.0972
rfingers 7.12502
rthumb 7.68359 -55.9376
lclavicle 9.93923e-016 -1.27222e-014
lhumerus -43.6903 4.81832 82.3036
lradius 16.9701
lwrist 8.48799
lhand -25.4734 -3.36008
lfingers 7.12502
lthumb 1.0543 26.6171
rfemur -21.2234 -1.86471 20.3512
rtibia 28.8563
rfoot -16.74 -3.88149
rtoes 7.03297
lfemur -20.8037 6.52566 -18.0727
ltibia 28.4807
lfoot -15.8219 7.52712
ltoes -10.6456
239
root 0.545582 17.3438 -14.1802 8.9382 -1.29898 -1.94382
lowerback 2.45121 -0.308951 0.321218
upperback 5.76856 -0.489771 2.0336
thorax 4.59413 -0.28302 1.91449
lowerneck -15.0372 0.42976 -2.04391
upperneck 22.0256 1.28564 -0.710577
head 9.42476 0.344666 0.256917
rclavicle 2.68359e-015 -2.0276e-014
rhumerus -49.0697 -21.1365 -64.0481
rradius 24.7439
rwrist 31.4282
rhand -18.638 -26.0977
rfingers 7.12502
rthumb 7.65461 -55.9392
lclavicle 2.68359e-015 -2.0276e-014
lhumerus -43.8328 4.85907 82.2247
lradius 16.8277
lwrist 8.28731
lhand -25.404 -3.33955
lfingers 7.12502
lthumb 1.12138 26.6372
rfemur -21.4126 -1.84047 20.3332
rtibia 29.101
rfoot -16.9359 -3.94205
rtoes 6.9385
lfemur -20.9754 6.56099 -18.1004
ltibia 28.7148
lfoot -16.1071 7.73708
ltoes -11.0956
240
root 0.545308 17.3368 -14.1763 9.00469 -1.2973 -1.92753
lowerback 2.5303 -0.308606 0.300814
upperback 5.7906 -0.488476 2.03498
thorax 4.57265 -0.283351 1.92776
lowerneck -15.066 0.43726 -2.04409
upperneck 21.934 1.29901 -0.725479
head 9.39814 0.350246 0.253336
rclavicle 9.83984e-015 -2.38542e-014
rhumerus -49.156 -21.1685 -63.9465
rradius 24.671
rwrist 31.5259
rhand -18.6339 -26.1005
rfingers 7.12502
rthumb 7.6585 -55.9418
lclavicle 9.83984e-015 -2.38542e-014
lhumerus -43.9526 4.90619 82.1418
lradius 16.6757
lwrist 8.06181
lhand -25.3405 -3.35914
lfingers 7.12502
lthumb 1.18275 26.6173
rfemur -21.5941 -1.80954 20.3168
rtibia 29.3467
rfoot -17.1465 -4.01366
rtoes 6.8358
lfemur -21.1432 6.58568 -18.1254
ltibia 28.9518
lfoot -16.3895 7.95651
ltoes -11.3364
241
root 0.544978 17.3298 -14.1714 9.07007 -1.28918 -1.91087
lowerback 2.60642 -0.310825 0.280738
upperback 5.81352 -0.490733 2.03758
thorax 4.55393 -0.285478 1.94207
lowerneck -15.0948 0.446129 -2.04451
upperneck 21.8399 1.31452 -0.741396
head 9.37069 0.356727 0.249709
rclavicle 3.97569e-016 2.10712e-014
rhumerus -49.2153 -21.2029 -63.8545
rradius 24.5973
rwrist 31.6116
rhand -18.6103 -26.1076
rfingers 7.12502
rthumb 7.68128 -55.9481
lclavicle 3.97569e-016 2.10712e-014
lhumerus -44.0446 4.96408 82.0526
lradius 16.5177
lwrist 7.80919
lhand -25.2637 -3.35588
lfingers 7.12502
lthumb 1.25691 26.6202
rfemur -21.7699 -1.77365 20.3006
rtibia 29.594
rfoot -17.3755 -4.105
rtoes 6.6904
lfemur -21.3085 6.59928 -18.1495
ltibia 29.1958
lfoot -16.6692 8.22688
ltoes -11.4027
